<svg width="30" height="30" viewBox="0 0 30 30" fill="none" xmlns="http://www.w3.org/2000/svg">
<path d="M28 18.6628V21.868C28 26.9628 24.9861 30 19.9305 30H8.29169C4.75001 30 2.19445 28.5024 1 25.843L1.15278 25.7311L7.98613 21.1122C9.09724 20.3564 10.6667 20.4404 11.6527 21.3082L12.125 21.7001C13.2083 22.6378 14.9583 22.6378 16.0416 21.7001L21.8194 16.7033C22.9028 15.7656 24.6528 15.7656 25.7361 16.7033L28 18.6628Z" fill="#929292"/>
<path opacity="0.4" d="M26.558 10.4557H22.442C20.664 10.4557 19.6 9.38461 19.6 7.59483V3.45156C19.6 2.88784 19.712 2.40869 19.908 2C19.894 2 19.88 2 19.866 2H8.134C3.038 2 0 5.05813 0 10.1879V21.9977C0 23.5338 0.266 24.8726 0.784 26L0.938 25.8873L7.826 21.2366C8.946 20.4756 10.528 20.5602 11.522 21.4339L11.998 21.8285C13.09 22.7728 14.854 22.7728 15.946 21.8285L21.77 16.7974C22.862 15.8532 24.626 15.8532 25.718 16.7974L28 18.7704V10.1879C28 10.1738 28 10.1597 28 10.1456C27.594 10.3429 27.118 10.4557 26.558 10.4557Z" fill="#929292"/>
<path d="M10 13C11.6569 13 13 11.6569 13 10C13 8.34315 11.6569 7 10 7C8.34315 7 7 8.34315 7 10C7 11.6569 8.34315 13 10 13Z" fill="#929292"/>
<path d="M27.1 10H22.9C21.0857 10 20 8.91429 20 7.1V2.9C20 1.08571 21.0857 0 22.9 0H27.1C28.9143 0 30 1.08571 30 2.9V7.1C30 8.91429 28.9143 10 27.1 10ZM27.4143 5.27143C27.2429 5.1 27.0143 5.01429 26.7857 5.01429C26.5571 5.01429 26.3286 5.1 26.1571 5.27143L25.9 5.52857V2.32857C25.9 1.82857 25.5 1.42857 25 1.42857C24.5 1.42857 24.1 1.82857 24.1 2.32857V5.52857L23.8429 5.27143C23.5 4.92857 22.9286 4.92857 22.5857 5.27143C22.2429 5.61429 22.2429 6.18571 22.5857 6.52857L24.3714 8.31429C24.4429 8.38571 24.5429 8.44286 24.6429 8.48571C24.6714 8.5 24.7 8.5 24.7286 8.51429C24.8 8.54286 24.8714 8.55714 24.9571 8.55714C24.9857 8.55714 25.0143 8.55714 25.0429 8.55714C25.1429 8.55714 25.2286 8.54286 25.3286 8.5C25.3429 8.5 25.3429 8.5 25.3571 8.5C25.4571 8.45714 25.5429 8.4 25.6143 8.32857C25.6286 8.31429 25.6286 8.31429 25.6429 8.31429L27.4286 6.52857C27.7714 6.18571 27.7714 5.61429 27.4143 5.27143Z" fill="#929292"/>
</svg>
